<?xml version="1.0" encoding="utf-8"?>
<!-- Generator: Adobe Illustrator 23.0.3, SVG Export Plug-In . SVG Version: 6.00 Build 0)  -->
<svg version="1.1" id="Icons" xmlns="http://www.w3.org/2000/svg" xmlns:xlink="http://www.w3.org/1999/xlink" x="0px" y="0px"
	 viewBox="0 0 32 32" style="enable-background:new 0 0 32 32;" xml:space="preserve">
<style type="text/css">
	.st0{fill:none;stroke:#000000;stroke-width:2;stroke-linejoin:round;stroke-miterlimit:10;}
	.st1{fill:none;stroke:#000000;stroke-width:2;stroke-linecap:round;stroke-linejoin:round;stroke-miterlimit:10;}
</style>
<path class="st1" d="M29,9L29,9c-1.9,3.1-5.2,5-8.8,5H7l0,0c-0.6-0.6-1.5-1-2.4-1h0C3.7,13,3,13.7,3,14.6v2.8C3,18.3,3.7,19,4.6,19
	h0c0.9,0,1.8-0.4,2.4-1l0,0h13.2c3.6,0,7,1.9,8.8,5l0,0V9z"/>
<path class="st1" d="M17.5,23h-6C10.1,23,9,21.9,9,20.5v0c0-1.4,1.1-2.5,2.5-2.5h6c1.4,0,2.5,1.1,2.5,2.5v0C20,21.9,18.9,23,17.5,23
	z"/>
<line class="st1" x1="29" y1="8" x2="29" y2="24"/>
<line class="st1" x1="11" y1="11" x2="11" y2="11"/>
<line class="st1" x1="14" y1="11" x2="14" y2="11"/>
<line class="st1" x1="17" y1="11" x2="17" y2="11"/>
</svg>
