<?xml version="1.0" encoding="utf-8"?>
<!-- Generator: Adobe Illustrator 23.0.3, SVG Export Plug-In . SVG Version: 6.00 Build 0)  -->
<svg version="1.1" id="Icons" xmlns="http://www.w3.org/2000/svg" xmlns:xlink="http://www.w3.org/1999/xlink" x="0px" y="0px"
	 viewBox="0 0 32 32" style="enable-background:new 0 0 32 32;" xml:space="preserve">
<style type="text/css">
	.st0{fill:none;stroke:#000000;stroke-width:2;stroke-linejoin:round;stroke-miterlimit:10;}
	.st1{fill:none;stroke:#000000;stroke-width:2;stroke-linecap:round;stroke-linejoin:round;stroke-miterlimit:10;}
</style>
<line class="st1" x1="3" y1="29" x2="9" y2="29"/>
<line class="st1" x1="13" y1="29" x2="19" y2="29"/>
<line class="st1" x1="23" y1="29" x2="29" y2="29"/>
<line class="st1" x1="3" y1="25" x2="9" y2="25"/>
<line class="st1" x1="13" y1="25" x2="19" y2="25"/>
<line class="st1" x1="23" y1="25" x2="29" y2="25"/>
<line class="st1" x1="3" y1="21" x2="9" y2="21"/>
<line class="st1" x1="13" y1="21" x2="19" y2="21"/>
<line class="st1" x1="23" y1="21" x2="29" y2="21"/>
<line class="st1" x1="3" y1="17" x2="9" y2="17"/>
<line class="st1" x1="23" y1="17" x2="29" y2="17"/>
<line class="st1" x1="3" y1="13" x2="9" y2="13"/>
<line class="st1" x1="23" y1="13" x2="29" y2="13"/>
<line class="st1" x1="3" y1="9" x2="9" y2="9"/>
<line class="st1" x1="3" y1="5" x2="9" y2="5"/>
</svg>
