<?xml version="1.0" encoding="utf-8"?>
<!-- Generator: Adobe Illustrator 23.0.3, SVG Export Plug-In . SVG Version: 6.00 Build 0)  -->
<svg version="1.1" id="Icons" xmlns="http://www.w3.org/2000/svg" xmlns:xlink="http://www.w3.org/1999/xlink" x="0px" y="0px"
	 viewBox="0 0 32 32" style="enable-background:new 0 0 32 32;" xml:space="preserve">
<style type="text/css">
	.st0{fill:none;stroke:#000000;stroke-width:2;stroke-linejoin:round;stroke-miterlimit:10;}
	.st1{fill:none;stroke:#000000;stroke-width:2;stroke-linecap:round;stroke-linejoin:round;stroke-miterlimit:10;}
</style>
<path class="st1" d="M17.8,21h-3.7c-2.3,0-4.2-1.9-4.2-4.2V7.2C10,4.9,11.9,3,14.2,3h3.7C20.1,3,22,4.9,22,7.2v9.7
	C22,19.1,20.1,21,17.8,21z"/>
<line class="st1" x1="12" y1="8" x2="10" y2="8"/>
<line class="st1" x1="12" y1="12" x2="10" y2="12"/>
<line class="st1" x1="22" y1="12" x2="16" y2="12"/>
<line class="st1" x1="12" y1="16" x2="10" y2="16"/>
<line class="st1" x1="22" y1="8" x2="16" y2="8"/>
<line class="st1" x1="22" y1="16" x2="16" y2="16"/>
<path class="st1" d="M4,12h2v4.8c0,4.5,3.6,8.2,8.2,8.2h3.7c4.5,0,8.2-3.6,8.2-8.2V12h2"/>
<path class="st1" d="M22,29c-1.6-0.6-3.7-1-6-1s-4.4,0.4-6,1"/>
</svg>
