<?xml version="1.0" encoding="utf-8"?>
<!-- Generator: Adobe Illustrator 23.0.3, SVG Export Plug-In . SVG Version: 6.00 Build 0)  -->
<svg version="1.1" id="Icons" xmlns="http://www.w3.org/2000/svg" xmlns:xlink="http://www.w3.org/1999/xlink" x="0px" y="0px"
	 viewBox="0 0 32 32" style="enable-background:new 0 0 32 32;" xml:space="preserve">
<style type="text/css">
	.st0{fill:none;stroke:#000000;stroke-width:2;stroke-linejoin:round;stroke-miterlimit:10;}
	.st1{fill:none;stroke:#000000;stroke-width:2;stroke-linecap:round;stroke-linejoin:round;stroke-miterlimit:10;}
</style>
<path class="st1" d="M26.5,10h-21C4.7,10,4,9.3,4,8.5v0C4,7.7,4.7,7,5.5,7h21C27.3,7,28,7.7,28,8.5v0C28,9.3,27.3,10,26.5,10z"/>
<polyline class="st1" points="10,10 10,29 6,29 6,10.1 "/>
<polyline class="st1" points="6,7 6,3 10,3 10,7 "/>
<polyline class="st1" points="10,7 10,3 14,3 14,7 "/>
<polyline class="st1" points="14,10 14,26 10,26 10,10 "/>
<polyline class="st1" points="14,7 14,3 18,3 18,7 "/>
<polyline class="st1" points="18,10 18,23 14,23 14,10 "/>
<polyline class="st1" points="18,7 18,3 22,3 22,7 "/>
<polyline class="st1" points="22,10 22,20 18,20 18,10 "/>
<polyline class="st1" points="22,7 22,3 26,3 26,7 "/>
<polyline class="st1" points="26,10 26,17 22,17 22,10 "/>
</svg>
