<?xml version='1.0' encoding='utf-8'?>
<svg xmlns="http://www.w3.org/2000/svg" version="1.1" width="720px" height="1358px" viewBox="0 0 720 1358"> <g id="layer1"> <g> <g style="fill:rgb(0,0,0); fill-opacity:1.0; stroke-linejoin: miter"> <path d="M333.53598,596.73486C332.73132,596.7886,331.8193,596.92255,331.52426,597.0568C331.22925,597.1908,330.1563,597.40546,329.11014,597.53955L327.23254,597.7541L327.15204,654.565L327.09836,711.34906L332.91898,711.2954L338.76636,711.21497L338.84695,653.86774L338.90057,596.54706L336.9693,596.60077C335.89636,596.62756,334.34067,596.6813,333.53598,596.73486 Z"/> </g> <g style="fill:rgb(0,0,0); fill-opacity:1.0; stroke-linejoin: miter"> <path d="M343.35318,597.1104C343.29953,597.45905,343.2459,623.2895,343.27274,654.4847L343.32623,711.21497L349.36145,711.21594L355.39658,711.21497L355.4771,654.43097L355.53073,597.6737L353.46545,597.4859C352.31204,597.3786,351.1855,597.1908,350.9709,597.08356C350.7295,596.9494,348.95917,596.7617,347.02792,596.6544L343.4873,596.4666L343.35318,597.1104 Z"/> </g> <g style="fill:rgb(0,0,0); fill-opacity:1.0; stroke-linejoin: miter"> <path d="M320.82187,599.1757C320.7414,599.3099,320.20496,599.5244,319.66846,599.6317C319.1052,599.73895,318.5419,599.8999,318.381,600.03406C318.24683,600.1413,317.57626,600.3827,316.9057,600.5437C315.75232,600.8388,315.34995,600.99963,313.5529,601.7775C313.1237,601.99207,312.2922,602.2872,311.75574,602.475C311.19238,602.66266,310.73645,602.9309,310.73645,603.0382C310.73645,603.14545,310.54868,603.25275,310.33408,603.25275C309.9854,603.25275,309.9317,609.3684,309.9854,657.22046L310.06583,711.2149L316.10098,711.2159L322.13614,711.2149L322.1362,655.15515L322.1362,599.0952L321.54605,599.0148C321.25104,598.96106,320.90228,599.0416,320.82187,599.1757 Z"/> </g> <g style="fill:rgb(0,0,0); fill-opacity:1.0; stroke-linejoin: miter"> <path d="M360.49304,599.2831C360.41254,599.47076,360.3857,624.73804,360.41254,655.4235L360.49298,711.21497L366.5281,711.21594L372.56326,711.21497L372.61697,657.30115L372.69745,603.3869L370.28336,602.3676C368.96906,601.8313,367.70837,601.3752,367.49384,601.3752C367.2792,601.3752,367.0378,601.26794,366.95734,601.1338C366.87686,600.9997,366.1526,600.73145,365.4016,600.5706C364.62375,600.38275,363.8727,600.14136,363.7118,600.0341C363.5776,599.89996,362.98755,599.739,362.4511,599.6317C361.88782,599.5245,361.43182,599.3367,361.43182,599.20264C361.43182,598.827,360.62714,598.90753,360.49304,599.2831 Z"/> </g> <g style="fill:rgb(0,0,0); fill-opacity:1.0; stroke-linejoin: miter"> <path d="M304.32578,606.04236C304.138,606.257,303.70886,606.52515,303.41376,606.6325C303.09195,606.7398,302.39447,607.1689,301.85806,607.5713C301.32162,608.0005,300.78513,608.3491,300.70465,608.3491C300.59738,608.3491,299.8732,608.832,299.06845,609.4221C298.26376,610.0122,297.53958,610.495,297.4591,610.495C297.35184,610.495,296.38617,611.2192,295.28647,612.13116L293.30154,613.74054L293.3552,662.47784L293.4356,711.2149L299.17572,711.29535C302.34085,711.3222,305.0231,711.2686,305.15717,711.1345C305.26453,711.0272,305.37183,687.26215,305.37186,658.3739C305.37186,603.25275,305.39868,604.7281,304.32578,606.04236 Z"/> </g> <g style="fill:rgb(0,0,0); fill-opacity:1.0; stroke-linejoin: miter"> <path d="M377.31094,658.5618L377.3914,711.21497L383.4265,711.21594L389.46164,711.21497L389.5422,662.77295L389.59592,614.3039L388.4693,613.3382C387.82553,612.80176,387.10135,612.1848,386.85995,611.9703C386.5917,611.75574,386.29666,611.56793,386.2162,611.56793C386.13574,611.56793,385.54562,611.1388,384.92865,610.62915C384.28494,610.1195,383.69482,609.6903,383.58755,609.6903C383.3193,609.6903,380.90527,608.00055,380.79794,607.7323C380.74432,607.625,380.5834,607.5445,380.42242,607.5445C380.2883,607.5445,379.77866,607.2495,379.32272,606.9008C378.83987,606.55206,378.1961,606.1765,377.84744,606.0693L377.25732,605.90826L377.31094,658.5618 Z"/> </g> <g style="fill:rgb(0,0,0); fill-opacity:1.0; stroke-linejoin: miter"> <path d="M285.97894,620.634C284.6914,621.9215,283.64532,623.0749,283.64532,623.1822C283.64532,623.2895,282.86746,624.3356,281.90186,625.489C280.93622,626.6424,280.1584,627.6884,280.1584,627.7958C280.1584,627.92993,279.30002,629.16376,278.093,630.7463C277.95886,630.8804,277.55655,631.5241,277.15417,632.14105L276.40314,633.29443L276.4031,672.32184L276.40308,711.34906L282.43823,711.35004L288.4734,711.34906L288.47345,664.8114C288.47345,639.2223,288.44666,618.2736,288.393,618.2736C288.36618,618.2736,287.2664,619.3197,285.97894,620.634 Z"/> </g> <g style="fill:rgb(0,0,0); fill-opacity:1.0; stroke-linejoin: miter"> <path d="M394.47766,665.0797L394.55798,711.21497L400.53955,711.2954L406.49423,711.3491L406.4943,673.0728C406.49432,635.7354,406.46753,634.743,405.98468,633.831C405.68964,633.32135,405.3409,632.59717,405.18,632.2752C405.01904,631.9266,404.45575,631.1218,403.94617,630.5049C403.43652,629.86115,403.00735,629.24426,403.00735,629.13696C403.00735,629.02966,402.57816,628.4128,402.06857,627.769C401.55887,627.1521,401.12973,626.562,401.12973,626.4815C401.12973,626.40106,400.94196,626.10596,400.72742,625.8377C397.37454,621.9484,396.46252,620.92914,395.5237,620.01715L394.424,618.9711L394.47766,665.0797 Z"/> </g> <g style="fill:rgb(0,0,0); fill-opacity:1.0; stroke-linejoin: miter"> <path d="M270.79715,645.2843C270.5826,646.0085,270.34116,646.67914,270.2339,646.8401C270.1266,646.9742,269.93884,647.5374,269.83157,648.04706C269.72424,648.5567,269.50967,649.1468,269.37555,649.30774C269.21466,649.49554,269.1878,649.65643,269.29507,649.65643C269.40234,649.65643,269.37555,649.8174,269.21466,649.97833C269.05368,650.1661,268.8659,650.8098,268.75858,651.3999C268.6513,651.99005,268.46362,652.58014,268.3563,652.7411C268.249,652.87524,268.0076,653.9212,267.81985,655.02106C267.65887,656.1208,267.39062,657.2473,267.25656,657.51556C267.12244,657.75696,266.9347,658.91034,266.82736,660.0638C266.74692,661.1903,266.53232,662.29004,266.3714,662.5046C266.1568,662.7728,266.0763,669.69305,266.0763,687.04755L266.07626,711.2149L268.75858,711.2159L271.44086,711.2149L271.52136,677.6059C271.5482,659.15173,271.49454,644.0236,271.36044,644.0236C271.25314,644.0236,270.98492,644.58685,270.79715,645.2843 Z"/> </g> <g style="fill:rgb(0,0,0); fill-opacity:1.0; stroke-linejoin: miter"> <path d="M411.3761,678.54474L411.45645,711.21497L413.8169,711.2954L416.17728,711.376L416.07007,687.02075C415.9896,671.75854,415.8287,662.1024,415.64093,661.1904C415.50684,660.3857,415.2386,658.9373,415.07767,657.9716C414.9167,657.00604,414.6753,655.98676,414.54117,655.69165C414.40704,655.39667,414.1657,654.2969,413.9779,653.27765C413.79013,652.2315,413.54874,651.3464,413.44147,651.2659C413.361,651.18536,413.1196,650.4612,412.93182,649.6565C412.74408,648.85187,412.5027,648.0471,412.39536,647.913C412.28806,647.752,412.1003,647.2424,411.99304,646.7596C411.91254,646.30365,411.69794,645.9013,411.56387,645.9013C411.42975,645.9013,411.34927,658.6959,411.3761,678.54474 Z"/> </g> <g style="fill:rgb(0,0,0); fill-opacity:1.0; stroke-linejoin: miter"> <path d="M265.9422,724.76056L265.9422,733.3438L341.04633,733.3448L416.15048,733.3438L416.15048,724.7606L416.15048,716.17725L341.04633,716.1771L265.9422,716.1772L265.9422,724.76056 Z"/> </g> <g style="fill:rgb(0,0,0); fill-opacity:1.0; stroke-linejoin: miter"> <path d="M240.64813,738.0915C240.37994,738.35974,240.46036,800.4547,240.7286,802.9492C241.2114,807.3213,241.82831,811.8008,241.98929,812.2032C242.09656,812.4177,242.31116,813.3834,242.49893,814.349C243.11584,817.54083,243.70596,820.1159,243.97421,820.6524C244.10828,820.9475,244.34967,821.83264,244.4838,822.63727C244.64474,823.442,244.85938,824.21985,244.99344,824.38074C245.12756,824.5417,245.3153,825.1049,245.42258,825.61456C245.5299,826.1242,245.71768,826.68756,245.82495,826.82166C245.95908,826.9826,246.20047,827.7068,246.38824,828.431C246.57599,829.18207,246.87103,830.0135,247.05884,830.3086C247.21976,830.6037,247.46115,831.24744,247.56842,831.70337C247.67575,832.18616,247.86353,832.58856,247.99765,832.58856C248.13177,832.58856,248.23898,832.8031,248.23898,833.07135C248.23898,834.0638,255.91037,848.62866,256.6078,848.8969C256.71506,848.9505,256.82233,849.1383,256.82233,849.32605C256.82233,849.487,257.17105,850.05035,257.62704,850.5599C258.0562,851.06964,258.40488,851.57916,258.43173,851.71326C258.43173,851.90106,260.38974,854.4493,261.4091,855.549C261.67728,855.8709,261.91867,856.2196,261.91867,856.32684C261.91867,857.21204,272.83563,868.45074,276.75177,871.61584C279.83643,874.0836,279.4877,873.81537,281.68723,875.55884C282.76007,876.4172,283.6721,877.1146,283.75256,877.1146C283.8867,877.1146,285.71066,878.268,286.19345,878.6703C286.35443,878.7775,286.64944,878.9654,286.864,879.07263C287.0786,879.17993,287.72238,879.5287,288.2588,879.8505C293.56976,883.1229,301.13382,887.03906,302.15305,887.03906C302.34088,887.03906,302.7968,887.2,303.17233,887.4146C304.27203,888.00464,306.63248,888.9167,307.03485,888.9167C307.22263,888.9167,307.7054,889.07764,308.1078,889.2922C308.51007,889.5067,309.50256,889.8287,310.33405,890.01636C311.13876,890.20416,311.80933,890.44556,311.80933,890.55286C311.80933,890.68695,312.42624,890.84796,313.15048,890.9552C313.90152,891.0625,314.4916,891.22345,314.4916,891.33075C314.4916,891.438,315.37677,891.6794,316.44974,891.86725C317.49582,892.05493,318.515,892.2696,318.64914,892.3769C318.81012,892.4573,319.56116,892.645,320.33905,892.80597L321.7338,893.0742L321.7338,953.58673C321.7338,1004.443,321.7874,1014.1529,322.10938,1014.42114C322.37756,1014.63574,327.58118,1014.6893,341.3414,1014.66266L360.22476,1014.58215L360.30524,953.77466L360.3589,892.96704L361.91458,892.77936C362.74612,892.6988,363.57758,892.5111,363.71176,892.40375C363.87268,892.29645,364.7578,892.05505,365.72348,891.8674C366.68906,891.70636,367.60107,891.46497,367.73514,891.3309C367.8961,891.2236,368.48624,891.03577,369.0763,890.92847C369.6664,890.8212,370.28333,890.6602,370.41745,890.553C370.57837,890.4457,371.3026,890.1774,372.02686,889.98975C372.7779,889.80194,373.5021,889.56055,373.6362,889.45325C373.79712,889.346,374.27997,889.185,374.70914,889.07776C375.8893,888.8095,379.24222,887.522,381.09296,886.61C381.52216,886.39545,381.97818,886.23444,382.11224,886.23444C382.40726,886.23444,385.35782,884.83966,385.57236,884.6251C385.65283,884.5178,386.13568,884.3033,386.64526,884.0886C387.1549,883.8741,387.63776,883.65955,387.7182,883.55225C387.79868,883.4717,388.14734,883.25714,388.52286,883.06934C388.89844,882.88165,389.67627,882.4524,390.2664,882.077C390.85654,881.7282,391.6075,881.299,391.95624,881.1649C392.3049,881.004,392.97546,880.5748,393.4583,880.19934C393.9411,879.8238,394.42395,879.5288,394.53122,879.5288C394.6385,879.5288,395.25543,879.1533,395.89917,878.72406C396.54294,878.2681,397.15985,877.9194,397.26718,877.9194C397.37448,877.9194,397.9646,877.49023,398.6083,876.9806C399.22528,876.47095,399.81534,876.04175,399.8958,876.04175C399.97626,876.04175,400.27133,875.85406,400.53958,875.6394C403.22186,873.279,405.15308,871.75006,405.39447,871.75006C405.87735,871.75006,418.8328,858.71423,418.8328,858.23145C418.8328,858.07043,420.8445,855.5491,422.18567,853.9666C422.4002,853.7251,422.58798,853.4301,422.58798,853.3497C422.58798,853.26917,423.01715,852.6522,423.55362,852.0085C424.5997,850.7478,425.45807,849.4067,425.69946,848.6019C425.80673,848.36053,425.9677,848.146,426.07498,848.146C426.2091,848.146,426.4773,847.8241,426.6919,847.39496C427.41614,845.9465,428.56955,843.98846,428.89142,843.5861C429.05234,843.3715,429.37418,842.7545,429.56198,842.2449C429.77652,841.7352,429.99115,841.25256,430.07162,841.172C430.1521,841.0915,430.52756,840.42096,430.90308,839.6968C431.2786,838.94574,431.70782,838.16785,431.86874,837.9532C432.0297,837.73865,432.32474,837.0682,432.51248,836.47797C432.70026,835.8879,432.94165,835.35144,433.02213,835.271C433.26352,835.05646,434.0414,833.3666,434.41693,832.1863C434.6047,831.59625,434.8461,830.9793,434.95337,830.8452C435.24847,830.4697,436.53592,826.4463,436.53592,825.99036C436.53592,825.7757,436.6432,825.61475,436.7773,825.61475C436.88464,825.61475,437.15283,824.8637,437.3406,823.9249C437.52835,823.01294,437.76974,822.1278,437.8771,821.99365C437.98438,821.8328,438.17212,821.2426,438.2794,820.6526C438.38672,820.0624,438.54764,819.4455,438.68176,819.31134C438.78903,819.1505,439.03043,818.0775,439.2182,816.92413C439.406,815.74396,439.64734,814.61743,439.78152,814.3759C440.0497,813.83954,440.77396,809.01135,441.12265,805.2294C441.25677,803.6736,441.49817,802.03735,441.6323,801.5814C441.9273,800.6963,442.00778,739.0572,441.73953,738.333C441.60547,737.9575,440.88123,737.9038,436.37494,737.9038L431.1713,737.90375L431.1713,768.8574C431.17136,789.216,431.0909,799.8915,430.90308,799.9989C430.769,800.0793,430.63486,800.9645,430.60806,801.9569C430.60806,802.94934,430.5008,804.5319,430.36667,805.49756C429.80338,809.6551,429.2401,812.90063,429.02548,813.4103C428.89142,813.7054,428.64996,814.67096,428.46222,815.5561C428.3013,816.4413,428.05984,817.2728,427.95258,817.4337C427.8453,817.5678,427.65753,818.21155,427.55026,818.8285C427.44293,819.4722,427.282,820.0356,427.1479,820.116C427.04062,820.1965,426.77237,820.8939,426.61148,821.64496C426.42365,822.42285,426.18225,823.1738,426.07498,823.3347C425.9677,823.46893,425.77994,824.0053,425.67267,824.4881C425.56534,824.971,425.32394,825.6952,425.10934,826.0976C424.89478,826.4998,424.65338,827.2241,424.5729,827.68005C424.49243,828.1629,424.30466,828.56525,424.1974,828.56525C424.06326,828.56525,423.90228,828.9139,423.795,829.34314C423.60727,830.255,418.77914,839.9113,418.29636,840.3673C418.21588,840.4478,417.67944,841.2257,417.11612,842.11084C416.55283,842.9959,415.85544,844.04205,415.58725,844.4444C415.29214,844.84674,415.0776,845.30273,415.0776,845.4368C415.0776,845.5978,414.8362,845.8392,414.5411,846.0002C414.2461,846.161,414.0047,846.42926,414.0047,846.5902C414.0047,846.7512,413.54868,847.4217,413.0122,848.0923C412.4489,848.76294,411.93933,849.46027,411.85886,849.6481C411.61746,850.23816,407.27213,855.0663,404.4289,857.88275C401.58566,860.7528,397.56223,864.3201,396.65027,864.8566C396.1138,865.17847,393.64606,867.05615,392.7609,867.8608C392.49274,868.07544,392.19763,868.2631,392.09036,868.2631C392.00986,868.2631,391.52707,868.5581,391.04422,868.9338C390.56143,869.30927,390.10544,869.60425,390.025,869.60425C389.94452,869.60425,389.30075,870.0066,388.60336,870.4626C386.67212,871.7769,386.2966,872.0183,385.5187,872.367C385.08957,872.52795,384.76767,872.76935,384.76767,872.87665C384.76767,872.98395,384.63354,873.0913,384.47266,873.0913C384.1776,873.0913,381.22708,874.4593,381.0125,874.7007C380.93204,874.8079,380.44925,875.02246,379.9396,875.2371C379.42996,875.4517,378.9471,875.6931,378.8667,875.7735C378.7862,875.85406,378.3034,876.09546,377.79376,876.28314C376.694,876.68555,375.2724,877.3293,374.25314,877.8389C373.87762,878.0266,373.4216,878.1876,373.23386,878.1876C373.07294,878.1876,372.42917,878.40216,371.81226,878.69727C371.19534,878.96545,370.28333,879.2873,369.80054,879.3947C369.3177,879.50195,368.5935,879.74335,368.1912,879.9579C367.78882,880.1726,367.1987,880.33344,366.87683,880.33344C366.52814,880.33344,366.2599,880.44073,366.2599,880.5748C366.2599,880.7089,365.34796,880.9772,364.2482,881.1649C363.14847,881.32587,362.23648,881.56726,362.23648,881.6747C362.23648,881.7819,361.51227,881.9428,360.6271,882.0502C359.74197,882.1575,358.96405,882.34515,358.8836,882.4524C358.82993,882.58655,358.48126,882.6939,358.1593,882.6939C357.81064,882.6939,356.76456,882.82794,355.79892,882.9889C354.83334,883.1499,353.519,883.284,352.84842,883.284C352.151,883.284,351.4536,883.44495,351.26584,883.60583C351.02444,883.8741,348.61038,883.9546,341.04636,883.9546C333.4823,883.9546,331.0682,883.8741,330.80002,883.60583C330.63904,883.44495,329.94165,883.284,329.2711,883.25714C327.55432,883.257,320.98276,882.10364,319.99033,881.67456C319.69528,881.5404,318.70285,881.2989,317.76404,881.1112C316.85205,880.95026,316.0205,880.682,315.94003,880.5747C315.85962,880.4406,315.53772,880.3333,315.21585,880.3333C314.89395,880.3333,314.27704,880.1456,313.8747,879.93097C313.44553,879.71643,312.614,879.4213,311.9971,879.26044C311.38016,879.0995,310.46817,878.8044,310.0122,878.58984C309.52936,878.3753,308.7247,877.99976,308.26868,877.7851C307.7859,877.57056,307.06165,877.32916,306.65933,877.2219C306.2302,877.14136,305.9083,876.9537,305.9083,876.8195C305.9083,876.6854,305.6937,876.5781,305.4523,876.5781C304.78168,876.5781,296.33252,872.3669,295.15225,871.42816C294.61584,871.02576,294.05255,870.6771,293.89157,870.6771C293.7575,870.6771,293.11377,870.2747,292.47,869.79193C291.79938,869.336,291.0752,868.7995,290.8338,868.6654C289.54633,867.8875,287.0786,866.09033,285.76428,864.9638C284.95956,864.2665,284.15494,863.7031,284.0476,863.7031C283.91348,863.7031,283.24295,863.16675,282.5724,862.523C281.90176,861.8792,280.48013,860.538,279.3804,859.51874C275.9471,856.30005,269.34863,848.8165,268.83905,847.55585C268.73172,847.2876,268.51715,847.07294,268.3562,847.07294C268.22214,847.07294,268.08795,846.9388,268.08795,846.77783C268.08795,846.61694,267.65878,845.9732,267.14914,845.3563C266.63956,844.7125,266.21036,844.09564,266.21036,843.98834C266.21036,843.85425,265.9153,843.31775,265.59344,842.8081C264.78876,841.5743,263.2062,839.0529,262.8039,838.35547C261.7846,836.612,258.16348,829.1016,258.00256,828.431C257.89523,827.97504,257.65384,827.3849,257.4661,827.0899C257.27832,826.7948,257.03693,826.0975,256.95645,825.5341C256.84918,824.9976,256.6614,824.5417,256.55408,824.5417C256.4468,824.5417,256.25903,824.08575,256.15176,823.5224C256.0445,822.9859,255.88351,822.3959,255.74945,822.2617C255.64212,822.10077,255.40073,821.3229,255.21298,820.51825C255.0252,819.71356,254.78381,818.90894,254.67648,818.7748C254.56921,818.61383,254.30096,817.78235,254.11325,816.8971C253.92545,816.012,253.68405,815.1536,253.57678,815.0195C253.46951,814.85864,253.30853,814.08075,253.20126,813.276C253.094,812.47144,252.90622,811.63983,252.7721,811.39844C252.5307,810.9961,251.88696,806.19476,251.45773,801.87634C251.35046,800.53516,251.2164,785.62164,251.2164,768.66956L251.18954,737.9037L246.01273,737.90466C243.14264,737.9037,240.7286,737.98425,240.64813,738.0915 Z"/> </g> <g style="fill:rgb(0,0,0); fill-opacity:1.0; stroke-linejoin: miter"> <path d="M265.99582,771.1105C266.04947,795.30475,266.1567,804.4514,266.3713,804.71954C266.55908,804.9341,266.77362,806.0606,266.88095,807.21405C266.98825,808.3943,267.176,809.54767,267.28326,809.76227C267.4174,810.00366,267.65878,811.10345,267.81976,812.2032C268.0075,813.30286,268.2489,814.37573,268.3562,814.61725C268.49033,814.8318,268.91946,816.09247,269.32184,817.4336C269.7242,818.7479,270.15335,819.95496,270.26062,820.1159C270.34113,820.25,270.502,820.7328,270.6093,821.1889C270.8239,822.0472,271.38718,823.36145,273.29163,827.54584C273.66714,828.3773,273.98904,829.18207,273.98904,829.343C273.98904,829.4771,274.06946,829.638,274.20358,829.69165C274.3109,829.7185,274.74008,830.4427,275.14236,831.24744C276.4299,833.74194,276.83228,834.41254,277.5833,835.3782C277.95877,835.8878,278.28064,836.39746,278.28064,836.5047C278.28064,836.612,278.81714,837.4167,279.4877,838.24817C280.1583,839.1065,280.69473,839.85754,280.69473,839.9649C280.69473,840.17944,283.29657,843.3714,284.58405,844.7125C285.09375,845.249,285.5229,845.81226,285.5229,845.94635C285.5229,846.1609,287.02496,847.6094,291.2898,851.5256C293.382,853.43,296.4398,855.9245,296.68118,855.9245C296.78845,855.9245,297.3786,856.3536,298.02234,856.8632C298.63925,857.373,299.28302,857.8021,299.444,857.8021C299.60492,857.8021,299.73898,857.90936,299.73898,858.0703C299.73898,858.20447,300.14133,858.5263,300.62415,858.74097C301.0802,858.9555,301.9653,859.4383,302.55542,859.787C303.14548,860.1625,304.2989,860.7794,305.10358,861.2086C305.9083,861.61096,306.63248,862.01337,306.71298,862.09375C306.95438,862.33514,312.07758,864.776,312.34583,864.776C312.4799,864.776,312.614,864.88336,312.614,865.0175C312.614,865.1516,313.01636,865.3393,313.49918,865.41974C313.95517,865.5003,314.67935,865.7417,315.08173,865.95624C315.4841,866.1709,316.20828,866.4123,316.69113,866.5196C317.17392,866.62683,317.71042,866.81464,317.84448,866.92194C318.0054,867.0292,318.8369,867.2706,319.72208,867.45844C320.60724,867.6461,321.4656,867.8875,321.59973,867.9948C321.76062,868.10205,322.77985,868.34344,323.87964,868.53125C324.9794,868.7191,326.02545,868.93365,326.15958,869.0409C326.42783,869.2018,329.24426,869.65796,332.86533,870.14075C335.30624,870.4357,346.78647,870.4357,349.2273,870.14075C352.87527,869.65796,355.6648,869.2019,355.93304,869.041C356.09402,868.9338,357.16687,868.71924,358.34714,868.5314C359.52734,868.34357,360.6271,868.1022,360.76123,867.99493C360.92215,867.88763,361.78052,867.6194,362.71927,867.45856C363.63126,867.2707,364.3823,867.0293,364.3823,866.92206C364.3823,866.81476,364.83826,866.62695,365.40158,866.51965C365.93808,866.4124,366.52814,866.2514,366.66226,866.14417C366.82318,866.03674,367.46695,865.7686,368.13748,865.5541C369.42502,865.15173,378.59845,860.6455,378.83984,860.26996C378.92032,860.1626,379.29584,859.9212,379.67136,859.7335C380.04688,859.5725,380.58337,859.27747,380.8784,859.0897C382.11224,858.3387,383.58752,857.39984,383.82892,857.1853C383.98984,857.078,384.82138,856.4611,385.70648,855.7905C390.45416,852.27673,396.3552,846.61707,399.43982,842.6205C400.78098,840.90375,402.36356,838.7848,402.73907,838.22144C402.9536,837.8996,403.54373,837.0949,404.02652,836.45123C404.48254,835.8342,404.8849,835.24414,404.8849,835.19055C404.8849,835.11005,405.34085,834.27856,405.93097,833.3666C406.49426,832.4278,407.64758,830.2014,408.4792,828.4311C410.54446,824.0859,410.70544,823.7639,411.08096,822.5301C411.2687,821.94,411.51013,821.323,411.61746,821.18896C411.72473,821.028,411.88565,820.46466,411.99298,819.9015C412.10025,819.365,412.288,818.90906,412.39526,818.90906C412.5294,818.90906,412.77078,818.2384,412.93176,817.4337C413.09268,816.6291,413.38773,815.63654,413.60233,815.23425C413.79007,814.80505,414.03146,813.8395,414.1388,813.08844C414.2461,812.31055,414.43384,811.6131,414.5411,811.53265C414.67523,811.4523,414.863,810.5671,414.94348,809.57465C415.05075,808.5821,415.23853,807.6434,415.3458,807.5092C415.9627,806.7045,416.15054,798.06757,416.15048,768.8037L416.15048,737.90375L341.04633,737.9047L265.91534,737.9037L265.99582,771.1105 Z"/> </g> </g> <g style="fill:rgb(0,0,0); fill-opacity:1.0; stroke-linejoin: miter"> <path d="M336.65958,437.47107C198.60358,437.4711,80.05282,544.7775,65.106285,688.2066C60.389275,733.4717,66.51116,777.34393,81.34663,817.08875L67.63568,683.2455L81.347145,817.0934C87.892975,834.6259,96.13319,851.3552,105.88668,867.0466Q112.28121,868.8975,117.734764,869.06366L118.6391,866.2032L121.59313,865.979L123.004265,865.8717L123.04292,867.3149L128.4415,867.1133Q128.93533,872.0504,129.42746,876.9876Q133.19415,876.61194,136.96078,876.2367C131.47076,869.01794,126.351585,861.49664,121.63104,853.7044L121.629395,853.70544C119.78606,850.659,118.00191,847.5724,116.28025,844.446L116.278694,844.44714Q116.278694,844.446,116.278694,844.446C91.439835,799.34125,79.59676,746.03534,85.40265,690.3217C86.07027,683.9153,86.959625,677.5882,88.06204,671.34735L88.06075,671.34827C109.9164,547.6326,215.4942,457.882,336.7344,457.88202C345.21442,457.88202,353.77097,458.32086,362.38095,459.2182C478.51715,471.32065,567.97107,562.9899,584.4763,676.60297C587.5717,697.9114,588.1013,719.9915,585.75946,742.4635C581.1604,786.59827,566.0353,826.97095,543.24084,861.24023Q543.2402,861.24567,543.2395,861.2511L543.2336,861.25214C542.1249,862.9179,540.998,864.57025,539.8532,866.2077L542.57104,866.4514L542.60974,866.4549L543.47473,869.32745Q553.13745,869.1651,565.82025,863.75836C570.0831,856.81384,574.0547,849.6572,577.72186,842.3044L596.1151,684.21344L577.73004,842.28827C592.5486,812.573,602.4007,779.65607,606.0558,744.5784C621.9985,591.591,514.1269,454.51468,364.49594,438.9219C355.14722,437.94757,345.86002,437.47107,336.65958,437.47107 Z"/> </g> <g style="fill:rgb(0,0,0); fill-opacity:1.0; stroke-linejoin: miter"> <path d="M552.3386,668.9658L563.2865,670.0591L563.467,673.8031L568.5026,673.99335L570.1081,669.7276Q583.85065,674.5636,598.918,685.4365L578.5954,860.17035Q559.57635,870.32733,546.2777,870.55054L545.4125,867.67786L541.05237,867.28656L540.99396,868.7288L534.41724,868.3933L552.3386,668.9658 Z"/> </g> <g style="fill:rgb(0,0,0); fill-opacity:1.0; stroke-linejoin: miter"> <path d="M514.8361,645.3823L537.5877,647.9661L560.33936,650.5502Q547.40826,764.4318,534.47754,878.3135Q511.72586,875.7297,488.97412,873.1464Q501.90506,759.26434,514.8361,645.3823 Z"/> </g> <g style="fill:rgb(0,0,0); fill-opacity:1.0; stroke-linejoin: miter"> <path d="M563.28827,670.0936L541.2335,867.3027L545.41125,867.67786Q557.4151,769.6342,569.419,671.59076L569.4128,671.5917L568.5026,673.99335L563.467,673.8031L563.28827,670.0936 Z"/> </g> <g style="fill:rgb(0,0,0); fill-opacity:1.0; stroke-linejoin: miter"> <path d="M559.60156,482.8373L559.60156,482.83777L559.60156,482.83835L559.60156,482.8373 Z"/> </g> <g style="fill:rgb(0,0,0); fill-opacity:1.0; stroke-linejoin: miter"> <path d="M117.23937,668.6378L106.2774,669.58093L106.04571,673.3222L101.00795,673.44354L99.46122,669.156Q85.65358,673.80316,70.438614,684.4686L88.36537,859.4651Q107.2434,869.8818,120.5377,870.2869L121.44207,867.4267L125.80729,867.095L125.84594,868.538L132.42648,868.29236L117.23937,668.6378 Z"/> </g> <g style="fill:rgb(0,0,0); fill-opacity:1.0; stroke-linejoin: miter"> <path d="M155.06143,645.5702L132.27661,647.84204L109.49176,650.1143Q120.86113,764.16235,132.2305,878.2108Q155.01544,875.9392,177.80045,873.6678Q166.43097,759.6191,155.06143,645.5702 Z"/> </g> <g style="fill:rgb(0,0,0); fill-opacity:1.0; stroke-linejoin: miter"> <path d="M106.27526,669.61566L125.62595,867.10864L121.44345,867.42645Q110.78398,769.2274,100.12466,671.0283L100.13074,671.0294L101.00795,673.44354L106.04571,673.3222L106.27526,669.61566 Z"/> </g> <g style="fill:rgb(0,0,0); fill-opacity:1.0; stroke-linejoin: miter"> <path d="M393.67563,455.10934L393.67563,455.1101L393.67563,455.10934L393.67563,455.1101L393.67563,455.10934L393.67563,455.1101L393.67563,455.10934L393.67563,455.1101L393.67563,455.10934L393.67563,455.1101 M393.65616,455.3308L393.65616,455.33167L393.65616,455.3308L393.65616,455.33167L393.65616,455.3308L393.65616,455.33167L393.65616,455.3308L393.65616,455.33167L393.65616,455.3308 Z"/> </g> </g> </svg>